<svg width="88" height="88" viewBox="0 0 88 88" fill="none" xmlns="http://www.w3.org/2000/svg">
<g clip-path="url(#clip0_202_507)">
<path d="M0 76.2821C0 82.4781 5.08028 87.5 11.3468 87.5H76.6528C82.9204 87.5 88 82.4774 88 76.2821V11.7182C88 5.52187 82.9197 0.5 76.6532 0.5H11.3472C5.07959 0.5 0 5.52255 0 11.7179V76.2818V76.2821Z" fill="#563D7C"/>
<path d="M36.4919 38.9832V26.6629H47.4613C48.5063 26.6629 49.5135 26.7489 50.4836 26.9212C51.4536 27.0931 52.312 27.4003 53.0583 27.8431C53.8042 28.286 54.4013 28.9007 54.8492 29.6875C55.2968 30.4746 55.5209 31.4829 55.5209 32.7121C55.5209 34.9255 54.8492 36.5241 53.5058 37.5076C52.1628 38.4915 50.4464 38.9832 48.3568 38.9832H36.4919ZM24.7759 17.6621V70.3379H50.5956C52.9837 70.3379 55.3095 70.0429 57.5731 69.4526C59.8367 68.8623 61.8514 67.9525 63.6176 66.723C65.3834 65.4934 66.789 63.907 67.8337 61.9645C68.8787 60.0216 69.4008 57.7222 69.4008 55.0663C69.4008 51.7709 68.5923 48.9553 66.9757 46.6192C65.3587 44.2828 62.9084 42.6474 59.6249 41.7129C62.0129 40.5819 63.8166 39.1307 65.0355 37.3601C66.2541 35.5895 66.8636 33.3765 66.8636 30.7203C66.8636 28.2612 66.4532 26.1956 65.6323 24.5232C64.8114 22.8512 63.6547 21.5108 62.1621 20.5025C60.6699 19.4942 58.879 18.7686 56.7893 18.3262C54.7 17.8833 52.3866 17.6621 49.8493 17.6621H24.7759ZM36.4919 61.3371V46.8771H49.2523C51.7895 46.8771 53.8293 47.4548 55.3717 48.611C56.9138 49.7668 57.6851 51.6971 57.6851 54.4023C57.6851 55.7797 57.4486 56.9107 56.976 57.796C56.5033 58.6813 55.8691 59.3823 55.073 59.8986C54.2772 60.4151 53.3566 60.7839 52.312 61.0054C51.267 61.2263 50.1728 61.3371 49.0285 61.3371H36.4919Z" fill="white"/>
</g>
<defs>
<clipPath id="clip0_202_507">
<rect width="88" height="87" fill="white" transform="translate(0 0.5)"/>
</clipPath>
</defs>
</svg>
